<?xml version="1.0" standalone="no"?>
<!DOCTYPE svg PUBLIC "-//W3C//DTD SVG 20010904//EN"
 "http://www.w3.org/TR/2001/REC-SVG-20010904/DTD/svg10.dtd">
<svg version="1.0" xmlns="http://www.w3.org/2000/svg"
 width="700.000000pt" height="700.000000pt" viewBox="0 0 700.000000 700.000000"
 preserveAspectRatio="xMidYMid meet">
<metadata>
Created by potrace 1.11, written by Peter Selinger 2001-2013
</metadata>
<g transform="translate(0.000000,700.000000) scale(0.100000,-0.100000)"
fill="#000000" stroke="none">
<path d="M5181 6843 c-91 -23 -149 -69 -193 -153 -19 -37 -23 -60 -23 -130 0
-74 3 -91 27 -130 65 -109 140 -154 258 -155 86 0 146 24 205 83 58 59 80 115
80 207 0 67 -5 88 -27 131 -63 120 -198 180 -327 147z"/>
<path d="M3424 6261 c-73 -19 -147 -79 -186 -153 -33 -63 -33 -194 1 -258 32
-60 83 -107 149 -137 46 -22 65 -25 126 -21 109 7 191 58 240 149 79 144 20
327 -129 399 -50 24 -149 35 -201 21z"/>
<path d="M5450 5671 c-77 -23 -159 -104 -184 -182 -60 -193 79 -383 278 -382
169 0 296 140 284 312 -8 111 -64 192 -165 238 -69 32 -138 36 -213 14z"/>
<path d="M230 5091 c-104 -33 -161 -76 -202 -152 l-23 -44 -3 -2240 c-1 -1547
1 -2256 8 -2291 21 -99 86 -171 185 -204 33 -11 597 -14 3290 -14 1788 1 3266
3 3285 6 87 14 158 66 196 145 l29 58 2 2255 c3 2310 3 2307 -34 2351 -7 8
-13 20 -13 25 0 16 -51 60 -97 84 -54 28 -122 37 -259 35 -203 -3 -244 -24
-340 -172 -166 -257 -442 -404 -754 -404 -58 0 -116 3 -130 5 -20 5 -61 14
-90 21 -97 24 -205 77 -296 146 -90 68 -134 115 -205 220 -97 145 -174 190
-316 186 -123 -4 -205 -54 -274 -167 -42 -69 -59 -90 -134 -163 -394 -383
-1054 -315 -1342 140 -98 154 -133 178 -258 177 -131 0 -200 -42 -298 -182
-99 -140 -207 -231 -359 -301 -315 -146 -709 -94 -933 124 -40 39 -99 104
-132 145 -82 102 -164 177 -220 202 -65 29 -206 34 -283 9z"/>
</g>
</svg>
